# xmcd
#
# Track frame offsets:
#	150
#	19260
#	40351
#	58400
#	83967
#	99096
#	121388
#	147413
#	165240
#	186361
#	207871
#
# Disc length: 3076 seconds
#
# Revision: 1
# Processed by: cddbd v1.5.1PL0 Copyright (c) Steve Scherf et al.
# Submitted via: CDex 1.50Beta5
#
DISCID=970c020b
DTITLE=チェン・ミン - i love-我聞-
DYEAR=2003
DGENRE=New Age
TTITLE0=あなたの生れた朝
TTITLE1=もうひとりの私
TTITLE2=恋歌
TTITLE3=花瓣語
TTITLE4=Open your heart(開開心心)
TTITLE5=天上的風
TTITLE6=山水人和
TTITLE7=花期花会〜また咲く頃に〜
TTITLE8=Ever Flight
TTITLE9=花(すべての人の心に花を)
TTITLE10=あなたの生れた朝(heart float version)
EXTD=
EXTT0=
EXTT1=
EXTT2=
EXTT3=
EXTT4=
EXTT5=
EXTT6=
EXTT7=
EXTT8=
EXTT9=
EXTT10=
PLAYORDER=
